<?xml version="1.0" standalone="no"?>
<!DOCTYPE svg PUBLIC "-//W3C//DTD SVG 20010904//EN"
 "http://www.w3.org/TR/2001/REC-SVG-20010904/DTD/svg10.dtd">
<svg version="1.0" xmlns="http://www.w3.org/2000/svg"
 width="512.000000pt" height="512.000000pt" viewBox="0 0 512.000000 512.000000"
 preserveAspectRatio="xMidYMid meet">

<g transform="translate(0.000000,512.000000) scale(0.100000,-0.100000)"
fill="#FFF" stroke="none">
<path d="M2494 4581 c-21 -16 -309 -299 -639 -630 l-600 -601 73 -72 72 -73
523 523 c287 287 525 522 530 522 4 0 7 -702 7 -1560 l0 -1560 100 0 100 0 0
1560 c0 858 3 1560 7 1560 5 0 243 -235 530 -522 l523 -523 72 73 73 72 -615
616 c-338 338 -627 622 -642 630 -40 21 -71 17 -114 -15z"/>
<path d="M510 1513 c0 -181 5 -357 11 -392 45 -283 241 -501 528 -588 51 -16
169 -18 1456 -21 911 -2 1427 1 1477 7 290 39 519 239 605 530 13 46 17 121
20 424 l5 367 -106 0 -106 0 0 -342 c0 -371 -3 -398 -56 -507 -57 -116 -203
-230 -334 -260 -30 -7 -522 -11 -1450 -11 -1186 0 -1413 2 -1459 15 -175 46
-315 183 -362 353 -17 59 -19 106 -19 409 l0 343 -105 0 -105 0 0 -327z"/>
</g>
</svg>
