<?xml version="1.0" standalone="no"?>
<!DOCTYPE svg PUBLIC "-//W3C//DTD SVG 20010904//EN"
 "http://www.w3.org/TR/2001/REC-SVG-20010904/DTD/svg10.dtd">
<svg version="1.0" xmlns="http://www.w3.org/2000/svg"
 width="64.000000pt" height="64.000000pt" viewBox="0 0 64.000000 64.000000"
 preserveAspectRatio="xMidYMid meet">

<g transform="translate(0.000000,64.000000) scale(0.100000,-0.100000)"
fill="#FFF" stroke="none">
<path d="M244 591 c-91 -55 -110 -174 -39 -241 33 -31 32 -36 -9 -50 -84 -27
-166 -139 -166 -227 l0 -43 290 0 290 0 0 43 c0 90 -84 203 -172 229 l-38 11
34 37 c38 42 51 85 42 135 -8 40 -47 90 -87 110 -39 21 -108 19 -145 -4z m133
-20 c25 -12 48 -32 57 -50 34 -65 9 -153 -53 -186 -115 -59 -236 70 -175 186
15 29 80 69 114 69 8 0 34 -9 57 -19z m61 -297 c73 -30 136 -112 144 -184 l3
-35 -265 0 -265 0 3 35 c7 71 71 153 142 184 48 21 189 21 238 0z"/>
</g>
</svg>
