<svg width="281" height="165" viewBox="0 0 281 165" fill="none" xmlns="http://www.w3.org/2000/svg">
<path d="M108.433 153.015L110.276 148.061L108.433 153.015C117.956 156.558 129.215 159.286 141.349 159.286C153.482 159.286 164.741 156.558 174.264 153.015C181.842 150.196 182.302 140.436 176.221 136.237C173.385 134.278 169.804 134.009 166.759 135.306L168.831 140.169L166.759 135.306C159.366 138.457 150.618 141.111 141.349 141.111C132.079 141.111 123.331 138.457 115.938 135.306C112.894 134.009 109.312 134.278 106.476 136.237C100.395 140.436 100.855 150.196 108.433 153.015Z" fill="white" stroke="white" stroke-width="10.5715"/>
<rect x="212.472" width="68.5279" height="118.767" rx="34.2639" fill="white"/>
<rect width="68.5279" height="118.767" rx="34.2639" fill="white"/>
</svg>
