<?xml version="1.0" standalone="no"?>
<!DOCTYPE svg PUBLIC "-//W3C//DTD SVG 20010904//EN"
 "http://www.w3.org/TR/2001/REC-SVG-20010904/DTD/svg10.dtd">
<svg version="1.0" xmlns="http://www.w3.org/2000/svg"
 width="374.000000pt" height="423.000000pt" viewBox="0 0 374.000000 423.000000"
 preserveAspectRatio="xMidYMid meet">

<g transform="translate(0.000000,423.000000) scale(0.100000,-0.100000)"
fill="#FFF" stroke="none">
<path d="M1397 4160 c-3 -11 -1 -55 4 -97 17 -137 64 -294 123 -412 15 -29 26
-54 24 -56 -2 -2 -41 12 -88 31 -47 19 -114 42 -150 50 -101 24 -284 44 -400
44 -148 0 -465 39 -532 65 -15 6 -18 2 -18 -21 1 -73 132 -397 194 -479 13
-16 42 -61 66 -100 23 -38 60 -92 82 -118 22 -27 38 -51 35 -54 -12 -11 -223
28 -317 60 -55 18 -100 31 -100 30 0 -25 99 -171 177 -260 l64 -73 -44 0 c-95
0 -316 72 -396 129 -44 32 -55 28 -47 -19 21 -129 112 -334 206 -462 75 -102
216 -202 335 -238 22 -6 46 -14 54 -16 20 -7 -223 -251 -311 -314 l-67 -47 77
-19 c108 -26 467 -28 557 -2 32 10 61 15 63 13 7 -6 60 -169 57 -173 -2 -2
-30 2 -64 9 -74 16 -94 5 -67 -35 26 -40 116 -96 154 -96 28 0 35 -5 48 -35 7
-19 14 -36 14 -37 0 -2 -18 -3 -40 -3 -36 0 -44 5 -78 50 -30 40 -44 50 -67
50 -23 1 -31 6 -33 22 -2 11 -11 28 -22 38 -17 15 -21 15 -48 1 -17 -9 -34
-20 -37 -26 -13 -21 -34 -9 -45 25 -13 40 -43 47 -80 17 -21 -17 -21 -19 -6
-56 9 -21 16 -44 16 -50 0 -6 -21 -24 -46 -40 -42 -26 -45 -31 -38 -60 10 -46
24 -59 59 -53 l31 5 -4 -55 -5 -56 38 7 c83 16 101 45 88 144 -5 36 -3 40 31
60 21 12 41 22 45 22 8 0 56 -80 50 -83 -2 -1 -17 -9 -34 -17 -35 -18 -46 -56
-32 -113 27 -107 178 -102 196 7 5 33 11 40 46 51 21 8 40 13 42 12 1 -2 5
-21 8 -42 6 -39 5 -41 -50 -84 -60 -46 -59 -43 -39 -126 4 -14 -3 -11 -24 14
-33 39 -53 37 -101 -8 l-31 -29 16 -53 c25 -83 102 -199 133 -199 17 0 109 59
114 74 3 8 -17 46 -44 84 -52 74 -55 82 -38 82 5 0 37 18 70 41 58 39 88 46
96 23 2 -6 -19 -28 -47 -48 -27 -20 -50 -41 -50 -46 0 -23 30 -80 42 -80 7 0
55 23 107 50 52 28 96 48 99 45 3 -2 -2 -19 -11 -37 -19 -40 -11 -59 43 -96
22 -15 39 -31 39 -37 0 -29 -156 -119 -233 -135 -50 -10 -55 -14 -71 -52 -15
-39 -17 -40 -53 -34 -20 3 -65 9 -98 13 -60 6 -62 5 -75 -23 -8 -16 -26 -35
-42 -42 -38 -18 -50 -45 -35 -77 12 -26 17 -28 103 -44 l50 -9 -55 -1 c-64 -1
-100 -21 -100 -55 0 -33 31 -56 75 -56 l39 0 -22 -20 c-25 -24 -27 -39 -8 -65
20 -28 92 -24 158 8 30 15 57 27 60 27 3 0 9 -15 12 -34 13 -66 86 -112 132
-81 19 12 24 24 24 60 0 25 4 45 9 45 6 0 54 -22 108 -49 272 -135 372 -154
793 -149 l255 3 97 38 c94 38 96 40 100 74 2 20 -4 90 -14 157 -25 173 -27
163 34 181 80 24 155 19 265 -16 119 -38 162 -36 266 13 74 35 75 37 81 79 3
24 8 134 12 245 l7 201 -33 11 c-20 7 -73 54 -135 119 l-103 107 62 67 c77 83
116 160 127 253 14 109 -11 195 -76 268 l-35 38 21 52 c11 29 26 69 34 89 7
19 25 59 40 89 31 61 371 574 423 637 30 37 32 44 17 49 -26 10 -172 -27 -248
-63 -38 -18 -71 -33 -74 -33 -3 0 -2 44 2 98 8 119 -22 398 -66 606 -16 77
-29 152 -29 168 0 84 -81 13 -208 -181 l-75 -114 -29 59 c-36 73 -97 162 -157
233 -211 247 -385 464 -409 509 l-29 54 -12 -33 c-30 -81 -30 -418 -1 -495 6
-15 8 -29 6 -32 -3 -2 -31 19 -62 47 -99 91 -260 188 -559 338 -159 80 -302
154 -317 164 -33 24 -34 24 -41 -1z m240 -176 c151 -64 307 -145 399 -207 170
-114 344 -256 463 -376 l125 -126 -39 70 c-21 39 -55 95 -76 125 -47 67 -85
196 -99 332 -17 165 -19 166 185 -62 294 -328 410 -521 471 -785 15 -68 15 6
-1 141 l-17 144 32 57 c43 77 142 206 150 196 11 -13 59 -308 76 -458 16 -154
12 -302 -12 -399 -8 -33 -37 -111 -65 -174 -27 -63 -48 -116 -46 -118 2 -2 23
22 46 54 45 59 95 152 116 211 10 32 22 40 126 87 63 28 116 50 118 48 2 -2
-70 -106 -159 -231 -89 -125 -174 -249 -189 -275 -14 -26 -29 -48 -34 -48 -4
0 -42 17 -85 39 -113 56 -333 136 -442 159 -323 70 -545 76 -896 26 l-112 -16
-93 37 c-52 21 -123 52 -159 70 -36 18 -82 40 -102 48 -36 15 -38 15 -38 -2 0
-10 24 -44 54 -75 58 -60 91 -76 56 -26 -12 17 -19 30 -17 30 2 0 35 -14 73
-31 38 -18 92 -40 119 -49 l50 -17 -45 -13 c-242 -66 -404 -150 -545 -281 -71
-67 -78 -81 -79 -154 -1 -46 -3 -50 -26 -51 -14 -1 -54 -6 -90 -13 -36 -6
-135 -14 -220 -17 l-155 -5 50 43 c27 24 101 92 165 151 l115 108 70 -5 c48
-3 64 -2 50 5 -14 6 -3 7 38 3 35 -3 57 -2 57 4 0 12 -20 16 -135 32 -294 41
-516 187 -639 420 -40 75 -80 179 -73 186 3 3 16 -1 29 -10 53 -34 481 -105
573 -94 29 3 28 4 -37 51 -66 47 -242 206 -235 213 2 2 53 -7 113 -21 60 -13
154 -28 210 -34 96 -9 107 -13 232 -75 73 -36 132 -62 132 -56 0 5 -53 44
-117 86 -124 80 -287 233 -351 326 -82 120 -252 456 -252 498 0 6 8 9 18 6 84
-24 338 -57 542 -71 291 -19 553 -87 712 -185 29 -18 64 -40 78 -48 14 -8 -10
19 -53 61 -61 59 -85 92 -112 151 -33 69 -155 417 -155 439 0 14 37 2 157 -49z
m1483 -2104 c50 -25 86 -79 101 -149 29 -138 -51 -305 -176 -367 -53 -25 -61
-27 -101 -16 -53 14 -104 16 -104 3 0 -5 -10 -13 -22 -17 -13 -4 -103 -42
-201 -86 -280 -124 -480 -198 -570 -209 -143 -18 -652 51 -665 91 -2 5 -10 10
-17 10 -8 0 -26 5 -40 12 -23 10 -24 13 -9 29 9 10 13 26 10 37 -11 32 -53 72
-78 72 -21 0 -25 9 -44 88 -12 48 -20 88 -19 90 1 1 37 -3 79 -10 103 -16 174
-3 341 62 152 59 194 62 381 29 217 -38 354 -8 601 131 l73 40 56 -112 c31
-62 58 -115 61 -118 11 -12 35 42 79 174 51 156 89 210 155 226 54 13 67 11
109 -10z m-280 -96 c0 -18 -54 -204 -60 -204 -7 0 -65 155 -62 167 4 15 122
51 122 37z m-1860 -488 c0 -14 -4 -27 -9 -30 -12 -8 -22 20 -15 39 9 23 24 18
24 -9z m2089 -82 c19 -5 22 -4 16 6 -14 22 16 0 49 -38 88 -98 136 -208 109
-251 -15 -23 -125 -81 -155 -81 -18 0 -31 8 -39 22 -10 18 -9 20 5 15 9 -4 16
-3 16 1 0 13 -72 49 -111 56 -38 7 -68 31 -55 44 4 4 28 7 52 6 28 -1 40 2 32
7 -7 5 -39 9 -70 9 -32 0 -58 4 -58 8 0 23 55 57 103 64 43 5 39 6 -26 4 -75
-3 -77 -2 -71 18 11 37 35 55 78 58 l41 4 -42 8 c-47 9 -51 16 -26 41 13 14
29 16 72 12 31 -3 67 -9 80 -13z m-1948 -620 l56 -7 16 -51 c10 -30 38 -78 67
-115 40 -48 49 -66 40 -76 -8 -9 -8 -15 0 -20 5 -3 10 -33 10 -66 0 -45 -4
-61 -16 -66 -24 -9 -64 37 -71 83 -3 21 -10 45 -16 52 -13 17 -42 15 -58 -5
-8 -9 -36 -26 -63 -39 -39 -18 -54 -20 -77 -12 -38 13 -28 25 51 63 41 19 60
34 58 45 -4 16 -17 17 -135 5 -61 -7 -73 -5 -73 7 0 27 24 38 86 38 44 0 65 4
75 16 21 25 -14 44 -82 44 -70 0 -89 7 -89 30 0 25 13 28 109 22 62 -4 82 -2
77 6 -4 7 -22 12 -41 12 -35 0 -70 24 -59 42 4 5 22 7 43 4 20 -3 61 -8 92
-12z" fill="#FFF"/>
<path d="M2051 3124 c133 -160 289 -374 289 -396 0 -5 -13 -2 -29 6 -49 26
-231 96 -247 96 -14 0 -14 -3 2 -27 36 -56 214 -250 229 -250 8 0 15 4 15 8 0
10 -74 105 -118 152 -20 20 -33 37 -30 37 12 0 202 -69 221 -81 11 -6 21 -8
24 -6 7 8 -51 115 -116 215 -33 50 -58 92 -55 92 9 0 165 -119 249 -191 78
-66 211 -199 347 -349 66 -71 92 -87 68 -38 -24 45 -123 171 -194 246 -133
140 -557 465 -651 498 -19 7 -19 6 -4 -12z m238 -558 c-3 -3 -11 5 -18 17 -13
21 -12 21 5 5 10 -10 16 -20 13 -22z" fill="#FFF" />
<path d="M3023 1799 c-25 -12 -58 -41 -78 -69 -35 -48 -70 -130 -63 -150 2 -6
35 31 73 82 60 79 113 128 137 128 3 0 20 -12 37 -26 28 -23 32 -24 38 -8 9
23 -39 64 -75 64 -15 0 -46 -9 -69 -21z" fill="#FFF" />
<path d="M2015 1353 c-30 -9 -109 -17 -195 -20 -80 -3 -149 -8 -153 -12 -4 -5
19 -33 53 -64 117 -109 191 -147 284 -147 65 0 96 16 119 60 19 37 18 61 -9
149 -16 57 -19 58 -99 34z m82 -68 c16 -47 11 -77 -20 -106 -19 -19 -30 -20
-90 -16 -78 7 -152 38 -211 90 l-40 34 100 6 c54 3 122 13 149 21 77 23 96 18
112 -29z" fill="#FFF" />
</g>
</svg>
